<svg xmlns="http://www.w3.org/2000/svg" width="310" height="44" viewBox="0 0 310 44">
  <g transform="translate(4,2)">
    <path d="M18 4 L32 10 L32 22 Q32 32 18 38 Q4 32 4 22 L4 10 Z" fill="none" stroke="#FFFFFF" stroke-width="2" stroke-linejoin="round"/>
    <circle cx="18" cy="15" r="3.5" fill="none" stroke="#FFFFFF" stroke-width="1.2" opacity="0.4"/>
    <circle cx="18" cy="15" r="1.2" fill="#FFFFFF" opacity="0.5"/>
    <line x1="8" y1="28" x2="14" y2="28" stroke="#FFFFFF" stroke-width="1.6" stroke-linecap="round" opacity="0.55"/>
    <line x1="16" y1="28" x2="22" y2="28" stroke="#FFFFFF" stroke-width="1.6" stroke-linecap="round" opacity="0.35"/>
    <line x1="24" y1="28" x2="30" y2="28" stroke="#FFFFFF" stroke-width="1.6" stroke-linecap="round" opacity="0.2"/>
  </g>
  <text x="44" y="24" dominant-baseline="central" font-family="Inter, system-ui, -apple-system, sans-serif" font-size="19" font-weight="500" letter-spacing="0.3" fill="#FFFFFF">Sign</text>
  <text x="78" y="24" dominant-baseline="central" font-family="Inter, system-ui, -apple-system, sans-serif" font-size="19" font-weight="500" letter-spacing="0.3" fill="#FFFFFF">IDed</text>
  <text x="130" y="24" dominant-baseline="central" font-family="Inter, system-ui, -apple-system, sans-serif" font-size="13" font-weight="400" fill="#666666">by</text>
  <g transform="translate(150,9)">
    <path d="M4 22 A18 18 0 0 1 22 4" fill="none" stroke="#FFFFFF" stroke-width="2.2" stroke-linecap="round"/>
    <path d="M4 22 A13.5 13.5 0 0 1 17.5 8.5" fill="none" stroke="#FFFFFF" stroke-width="2.2" stroke-linecap="round" opacity="0.55"/>
    <path d="M4 22 A9 9 0 0 1 13 13" fill="none" stroke="#FFFFFF" stroke-width="2.2" stroke-linecap="round" opacity="0.25"/>
  </g>
  <text x="180" y="24" dominant-baseline="central" font-family="Inter, system-ui, -apple-system, sans-serif" font-size="13" font-weight="500" letter-spacing="0.5" fill="#FFFFFF">aiyug</text>
</svg>
